<?xml version="1.0" standalone="no"?>
<!DOCTYPE svg PUBLIC "-//W3C//DTD SVG 20010904//EN"
 "http://www.w3.org/TR/2001/REC-SVG-20010904/DTD/svg10.dtd">
<svg version="1.0" xmlns="http://www.w3.org/2000/svg"
 width="500.000000pt" height="500.000000pt" viewBox="0 0 500.000000 500.000000"
 preserveAspectRatio="xMidYMid meet">

<g transform="translate(0.000000,500.000000) scale(0.100000,-0.100000)"
fill="#000000" stroke="none">
<path d="M2260 4933 c-528 -67 -932 -231 -1316 -534 -96 -76 -310 -288 -387
-385 -451 -564 -638 -1288 -516 -2003 84 -495 321 -963 670 -1322 252 -258
591 -481 902 -594 127 -45 184 -47 225 -6 16 17 32 45 36 63 4 18 3 127 0 241
-7 205 -8 208 -28 203 -66 -16 -212 -28 -281 -23 -174 13 -294 65 -406 177
-46 45 -84 95 -98 125 -115 249 -175 339 -278 410 -86 60 -125 101 -121 127 5
35 44 49 123 46 137 -6 267 -96 383 -266 109 -159 213 -233 359 -253 94 -13
171 -6 274 27 l77 24 11 53 c20 94 57 175 112 248 l28 35 -82 12 c-305 44
-576 161 -730 315 -200 200 -298 464 -313 842 -12 277 48 480 199 680 l53 71
-20 59 c-16 50 -20 88 -20 220 0 161 5 197 50 337 18 57 39 64 140 48 138 -21
308 -92 474 -196 l95 -60 70 18 c157 42 331 61 550 61 224 1 357 -13 535 -56
l95 -23 75 49 c92 60 273 149 360 176 84 26 195 44 231 36 25 -6 31 -15 49
-73 30 -97 50 -223 50 -319 0 -81 -22 -220 -41 -255 -7 -13 4 -34 46 -90 149
-197 216 -435 201 -708 -34 -611 -303 -955 -850 -1090 -67 -16 -158 -34 -204
-41 l-82 -11 35 -39 c45 -50 81 -123 108 -217 21 -73 22 -97 22 -492 1 -228 2
-425 3 -438 1 -13 15 -37 31 -53 25 -24 37 -29 80 -29 90 0 365 118 562 240
661 412 1093 1093 1179 1860 27 238 9 567 -45 817 -76 352 -271 762 -487 1026
-346 423 -786 713 -1295 852 -218 60 -346 77 -618 80 -132 2 -256 1 -275 -2z"/>
</g>
</svg>
